HIERARCHY
ROOT hip
{
  OFFSET 0 0 0
  CHANNELS 6 Xposition Yposition Zposition Zrotation Yrotation Xrotation
  JOINT abdomen
  {
    OFFSET 0 20.6881 -0.73152
    CHANNELS 3 Zrotation Xrotation Yrotation
    JOINT chest
    {
      OFFSET 0 11.7043 -0.48768
      CHANNELS 3 Zrotation Xrotation Yrotation
      JOINT neck
      {
        OFFSET 0 22.1894 -2.19456
        CHANNELS 3 Zrotation Xrotation Yrotation
        JOINT head
        {
          OFFSET -0.24384 7.07133 1.2192
          CHANNELS 3 Zrotation Xrotation Yrotation
          JOINT leftEye
          {
            OFFSET 4.14528 8.04674 8.04672
            CHANNELS 3 Zrotation Xrotation Yrotation
            End Site
            {
              OFFSET 1 0 0
            }
          }
          JOINT rightEye
          {
            OFFSET -3.6576 8.04674 8.04672
            CHANNELS 3 Zrotation Xrotation Yrotation
            End Site
            {
              OFFSET 1 0 0
            }
          }
        }
      }
      JOINT rCollar
      {
        OFFSET -2.68224 19.2634 -4.8768
        CHANNELS 3 Zrotation Xrotation Yrotation
        JOINT rShldr
        {
          OFFSET -8.77824 -1.95073 1.46304
          CHANNELS 3 Zrotation Xrotation Yrotation
          JOINT rForeArm
          {
            OFFSET -28.1742 -1.7115 0.48768
            CHANNELS 3 Zrotation Xrotation Yrotation
            JOINT rHand
            {
              OFFSET -22.5879 0.773209 7.07136
              CHANNELS 3 Zrotation Xrotation Yrotation
              JOINT rThumb1
              {
                OFFSET -1.2192 -0.487915 3.41376
                CHANNELS 3 Zrotation Xrotation Yrotation
                JOINT rThumb2
                {
                  OFFSET -3.37035 -0.52449 3.41376
                  CHANNELS 3 Zrotation Xrotation Yrotation
                  End Site
                  {
                    OFFSET -1.78271 -1.18214 1.43049
                  }
                }
              }
              JOINT rIndex1
              {
                OFFSET -7.75947 0.938293 5.60832
                CHANNELS 3 Zrotation Xrotation Yrotation
                JOINT rIndex2
                {
                  OFFSET -2.54057 -0.884171 1.56538
                  CHANNELS 3 Zrotation Xrotation Yrotation
                  End Site
                  {
                    OFFSET -1.62519 -0.234802 1.16502
                  }
                }
              }
              JOINT rMid1
              {
                OFFSET -8.24714 1.18213 3.41376
                CHANNELS 3 Zrotation Xrotation Yrotation
                JOINT rMid2
                {
                  OFFSET -3.10165 -0.590103 1.0647
                  CHANNELS 3 Zrotation Xrotation Yrotation
                  End Site
                  {
                    OFFSET -2.48547 -0.328903 0.83742
                  }
                }
              }
              JOINT rRing1
              {
                OFFSET -8.82822 0.546677 1.51678
                CHANNELS 3 Zrotation Xrotation Yrotation
                JOINT rRing2
                {
                  OFFSET -2.60934 -0.819778 -0.0198488
                  CHANNELS 3 Zrotation Xrotation Yrotation
                  End Site
                  {
                    OFFSET -2.33842 -0.294052 0.168128
                  }
                }
              }
              JOINT rPinky1
              {
                OFFSET -8.27202 -0.0477905 -0.4584
                CHANNELS 3 Zrotation Xrotation Yrotation
                JOINT rPinky2
                {
                  OFFSET -1.82734 -0.647385 -0.700984
                  CHANNELS 3 Zrotation Xrotation Yrotation
                  End Site
                  {
                    OFFSET -1.69225 -0.51767 -0.607171
                  }
                }
              }
            }
          }
        }
      }
      JOINT lCollar
      {
        OFFSET 2.68224 19.2634 -4.8768
        CHANNELS 3 Zrotation Xrotation Yrotation
        JOINT lShldr
        {
          OFFSET 8.77824 -1.95073 1.46304
          CHANNELS 3 Zrotation Xrotation Yrotation
          JOINT lForeArm
          {
            OFFSET 28.1742 -1.7115 0.48768
            CHANNELS 3 Zrotation Xrotation Yrotation
            JOINT lHand
            {
              OFFSET 22.5879 0.773209 7.07136
              CHANNELS 3 Zrotation Xrotation Yrotation
              JOINT lThumb1
              {
                OFFSET 1.2192 -0.487915 3.41376
                CHANNELS 3 Zrotation Xrotation Yrotation
                JOINT lThumb2
                {
                  OFFSET 3.37035 -0.52449 3.41376
                  CHANNELS 3 Zrotation Xrotation Yrotation
                  End Site
                  {
                    OFFSET 1.78271 -1.18214 1.43049
                  }
                }
              }
              JOINT lIndex1
              {
                OFFSET 7.75947 0.938293 5.60832
                CHANNELS 3 Zrotation Xrotation Yrotation
                JOINT lIndex2
                {
                  OFFSET 2.54057 -0.884171 1.56538
                  CHANNELS 3 Zrotation Xrotation Yrotation
                  End Site
                  {
                    OFFSET 1.62519 -0.234802 1.16502
                  }
                }
              }
              JOINT lMid1
              {
                OFFSET 8.24714 1.18213 3.41376
                CHANNELS 3 Zrotation Xrotation Yrotation
                JOINT lMid2
                {
                  OFFSET 3.10165 -0.590103 1.0647
                  CHANNELS 3 Zrotation Xrotation Yrotation
                  End Site
                  {
                    OFFSET 2.48547 -0.328903 0.83742
                  }
                }
              }
              JOINT lRing1
              {
                OFFSET 8.82822 0.546677 1.51678
                CHANNELS 3 Zrotation Xrotation Yrotation
                JOINT lRing2
                {
                  OFFSET 2.60934 -0.819778 -0.0198488
                  CHANNELS 3 Zrotation Xrotation Yrotation
                  End Site
                  {
                    OFFSET 2.33842 -0.294052 0.168128
                  }
                }
              }
              JOINT lPinky1
              {
                OFFSET 8.27202 -0.0477905 -0.4584
                CHANNELS 3 Zrotation Xrotation Yrotation
                JOINT lPinky2
                {
                  OFFSET 1.82734 -0.647385 -0.700984
                  CHANNELS 3 Zrotation Xrotation Yrotation
                  End Site
                  {
                    OFFSET 1.69225 -0.51767 -0.607171
                  }
                }
              }
            }
          }
        }
      }
    }
  }
  JOINT rButtock
  {
    OFFSET -8.77824 4.35084 1.2192
    CHANNELS 3 Zrotation Xrotation Yrotation
    JOINT rThigh
    {
      OFFSET 0 -1.70687 -2.19456
      CHANNELS 3 Zrotation Xrotation Yrotation
      JOINT rShin
      {
        OFFSET 0 -36.8199 0.73152
        CHANNELS 3 Zrotation Xrotation Yrotation
        JOINT rFoot
        {
          OFFSET 0.73152 -45.1104 -5.12064
          CHANNELS 3 Zrotation Xrotation Yrotation
          End Site
          {
            OFFSET -1.1221 -3.69964 12.103
          }
        }
      }
    }
  }
  JOINT lButtock
  {
    OFFSET 8.77824 4.35084 1.2192
    CHANNELS 3 Zrotation Xrotation Yrotation
    JOINT lThigh
    {
      OFFSET 0 -1.70687 -2.19456
      CHANNELS 3 Zrotation Xrotation Yrotation
      JOINT lShin
      {
        OFFSET 0 -36.8199 0.73152
        CHANNELS 3 Zrotation Xrotation Yrotation
        JOINT lFoot
        {
          OFFSET -0.73152 -45.1104 -5.12064
          CHANNELS 3 Zrotation Xrotation Yrotation
          End Site
          {
            OFFSET 1.1221 -3.69964 12.103
          }
        }
      }
    }
  }
}
MOTION
Frames:	4
Frame Time:	0.03333
15.5564 68.0691 11.3514 113.386774 86.982047 115.285463 -8.816668 8.218468 -154.669617 -0.342649 4.569108 157.227405 -13.574101 28.895232 -97.444065 37.928507 16.633421 61.608175 0.004585 0.0 0.000234 -0.001571 0.0 -0.001844 -1.494204 8.111751 1.916807 -115.068469 22.511487 150.067395 179.669022 -18.891276 -108.974374 -9.805675 29.74446 1.60675 -159.660535 2.592798 88.801746 177.171825 -20.130446 88.667341 -59.488491 42.558745 48.16807 -168.817695 -17.499662 112.812892 -145.651146 28.932449 132.990492 -15.340287 38.807379 12.531291 -145.112383 -0.535294 -178.959046 -155.99209 7.989331 179.809926 7.319822 22.610952 6.495441 -115.664231 -42.366898 -114.081535 -4.057245 -39.088052 7.528117 -13.439612 -46.695059 57.293637 156.998327 59.984608 99.103657 7.374557 -21.706933 5.568438 49.6738 33.717092 -22.836171 147.18529 -39.6579 -92.114917 35.820496 35.520069 -27.233244 -162.144409 -49.006165 -99.070796 -156.80609 -75.528157 -124.042559 164.011355 -6.390456 -143.264243 145.116602 -0.057179 179.109191 152.516376 -24.151119 175.507881 95.784909 -48.148995 94.048708 -22.043929 57.830035 -7.497269 -179.999731 75.749294 -0.000273 158.883895 5.005929 -95.101713 -85.807646 -6.056661 -113.61831 179.041922 20.930026 154.703338 -179.999622 75.749749 -0.000429 -124.457439 75.773889 36.110341 41.270474 6.225566 -107.869734 -169.173924 -37.017078 -73.443328
15.517100000000001 68.0424 11.5463 108.238312 87.060168 110.479326 -9.77034 13.090814 1.125696 3.141924 -8.75905 1.81464 6.339006 30.733189 132.6907 -27.906905 32.837675 -157.894805 -0.000336 -0.0 0.002482 -0.000789 0.0 -0.000225 4.196788 -42.97099 -8.288491 -122.411906 -38.419159 -169.49376 3.911628 -9.027716 -107.1107 167.667475 -24.564956 142.52844 -165.254275 -2.92747 89.645449 170.535558 -24.616235 93.367866 -1.012626 1.625258 0.582536 5.747113 7.885493 0.98951 7.066378 -22.129737 -2.845169 -80.321768 64.389961 72.346008 -0.012381 -1.063819 -0.334336 6.823752 30.698516 4.888568 -64.405194 -51.617728 -62.983371 -33.407692 -46.702831 -35.016217 151.320014 17.366785 -156.603787 42.169805 -28.54837 -24.844479 145.278149 -45.466549 58.177937 3.266518 -34.760106 6.302422 -179.144306 -18.271075 -89.130077 153.375684 6.431581 -83.384639 167.14062 -44.435519 -121.992574 -129.181718 -69.836562 -70.365016 13.257302 29.670249 -9.490147 -10.293732 -21.368611 1.533942 0.035461 5.252769 -1.652752 -11.106633 -28.986302 3.490234 29.960164 -41.180859 28.943789 152.207354 31.314791 147.143474 179.993279 75.749034 0.004496 159.173439 5.074443 -73.130178 -74.486117 16.344128 135.841212 67.589968 -58.951174 -22.047016 0.001914 -0.002365 -0.000219 13.998068 6.089715 -71.041592 -40.872605 9.699828 97.690188 -63.701509 -39.260542 -3.152411
15.477599999999999 68.0257 11.758299999999998 103.700625 87.044534 106.334895 -8.906616 8.749387 -162.300153 -1.036507 4.752442 164.680552 0.948342 34.387046 170.589664 -6.131205 45.132551 159.544109 0.002113 -0.0 -0.003763 0.002968 0.0 0.003964 -3.755121 17.870737 4.626036 -119.35201 15.676477 145.008643 -174.756641 -3.364493 -107.31914 -7.967116 23.987935 0.808558 -173.853915 -11.519883 89.887077 165.014841 -30.759488 99.908096 -142.049021 -0.693558 116.960262 -81.685204 56.992178 62.203176 -163.772021 -16.493422 144.476278 -175.629603 -39.535268 142.827497 -145.1215 0.584127 -179.311323 -145.745975 -49.37095 -168.033863 -4.331064 -10.174031 -4.050461 -33.894344 -47.375773 -34.517026 155.635775 -4.382138 -162.0226 -132.67951 -10.952947 -177.627302 -172.46451 -0.260616 -46.224666 164.999666 16.752856 -138.075531 4.092268 3.986345 -0.766921 115.271343 -5.81263 -104.038895 177.024059 -56.249091 -118.312679 -90.238423 -68.701047 -34.408749 -2.647262 -8.006034 1.334806 -17.385192 -40.94265 0.358634 5.2e-05 2.970448 -0.934357 155.919505 -5.240917 -172.489397 147.69475 20.465449 144.011809 150.846572 21.188269 143.690828 -0.005281 -0.000467 -0.005921 -51.441988 -60.591954 20.243573 80.378477 17.540155 18.390952 -140.856053 -44.043659 127.249878 179.981242 75.75001 0.013796 -121.784158 73.643967 -162.029659 -50.852703 -22.012956 -60.611602 -131.588206 -13.799333 175.303156
15.5578 68.01310000000001 12.054 100.856984 86.891845 103.926938 -7.551007 12.825556 -54.909943 7.283079 -3.708616 57.035077 7.579496 22.019057 83.120743 -34.364641 5.023641 -113.984998 -0.002602 0.0 -0.003358 0.003537 -0.0 -0.001184 -31.10507 -85.44956 -52.464254 -107.13367 -50.673631 -131.013647 -178.404589 -12.155562 -107.379866 -9.179751 27.054776 1.198102 31.716079 -29.457199 3.70483 -16.582908 8.822007 -5.065231 -161.035874 -34.776959 122.709807 -159.570939 -15.743846 119.487014 -162.771666 -13.281681 144.129164 -163.23471 -4.544522 142.939784 -0.003739 -0.316415 -0.099433 9.254958 12.769101 1.671625 -132.199345 -18.595713 -129.725151 -154.235752 34.72858 -145.95939 -4.226076 -44.131338 8.522597 -57.554595 -4.180366 31.546257 166.123475 -65.834264 -58.110847 171.366968 -0.242211 -142.298786 179.073755 -16.59195 -89.401848 143.873302 10.893911 -75.73855 -179.824812 -59.066176 -116.622095 52.301464 55.537388 -40.961589 146.320537 27.817101 -133.536968 12.280483 34.534025 -10.082517 145.12308 1.203687 179.506194 153.573893 -17.85547 176.655075 -2.100606 5.755488 -1.921497 154.148399 35.925774 148.244444 -179.998204 75.75074 -0.001154 159.723293 3.597484 -107.341839 -79.831284 -27.69041 14.791174 26.137658 -72.082631 121.301429 -0.016362 0.000181 -0.010389 13.717431 6.181841 -59.490979 -49.728479 20.25462 -137.583141 -39.461893 -12.356034 -117.253957
